<svg id="Logo" xmlns="http://www.w3.org/2000/svg" width="239.776" height="77.522" viewBox="0 0 239.776 77.522">
  <g id="Sun" transform="translate(70.063)">
    <path id="Path_3264" data-name="Path 3264" d="M241.14,340.31l2.907-.717c-2.584-2.356-6.921-4.14-10.675-1.99-3.273,1.874-6.818,1.549-10.121-.4-.452-.267-.9-.542-1.349-.815l-.3.237,1.734,3.867h-9.384a35.522,35.522,0,0,1,2.262-13.66,41.059,41.059,0,0,1,22.108-24.02,40.894,40.894,0,0,1,25.558-2.592c-.628,2.028-1.1,4.124-1.922,6.071-1.272,3.008.909,6.567,2.89,7.586a20.315,20.315,0,0,1-1.422,2.962c-2.7,3.91-5.474,7.767-8.245,11.626-.048.066-.382-.073-.582-.116.07-.053.2-.11.2-.161-.144-3.336,1.569-6,3.107-8.745,1.15-2.05,2.081-4.169,1.57-6.633-.941-4.532-4.3-6.59-8.222-8.076-.362.844.05,1.1.823,1.086l-.008-.008-.026.579.024.556-.012-.014c.17,1.343.68,2.751.436,4.013a55.7,55.7,0,0,1-2.04,6.706c-.715,2.177-1.036,4.391,0,6.5.633,1.3,1.134,2.824,2.738,3.388l-.017-.023.268.549c1.275,1,1.02,2.154.62,3.545a14.738,14.738,0,0,0-.633,7.185,7.756,7.756,0,0,1,.014,1.511Zm-15.787-21.066c2.28,1.367,2.562,3.3,2.5,5.348-.164,5.29,3.5,8.071,8.108,8.774,3.565.544,7.287.5,10.374,3.509-.141-.788-.187-1.194-.288-1.586a8.752,8.752,0,0,0-7.3-6.852,8.164,8.164,0,0,1-6.56-5.27,5.708,5.708,0,0,0-4.65-3.651C226.96,319.41,226.371,319.368,225.352,319.244Zm23.142,11.724a10.418,10.418,0,0,0-.208-1.205,30.865,30.865,0,0,1-1.195-4.071c-.328-2.271-.36-4.582-.6-6.867a7.555,7.555,0,0,0-2.891-5.557c-2.475-1.89-5.354-2.589-8.718-3.273,3.479,2.687,4.343,6.122,4.439,9.9a8.646,8.646,0,0,0,4.6,7.784A53.654,53.654,0,0,1,248.495,330.968Z" transform="translate(-213.924 -293.844)" fill="#f48100"/>
    <path id="Path_3265" data-name="Path 3265" d="M302.437,303.562a41.256,41.256,0,0,1,27.684,39H319.95l3.32-3-.146-.258c-1.5.183-3,.458-4.506.528a22.765,22.765,0,0,1-7.663-.773c-3.9-1.157-7.053.28-9.632,3.241H287.908c-.751-5.391.225-10.183,3.442-14.391,3.067-4.012,6.483-7.783,8.275-12.626l.273-.538-.017.023c.072.038.2.122.209.108,2.442-2.822,3.7-5.985,2.773-9.764C302.735,304.587,302.579,304.076,302.437,303.562Zm.8,15.669a7.806,7.806,0,0,1-.28-1.423c-.031-2.133-.014-4.267-.014-6.4l-.285,0v8.114a35.774,35.774,0,0,0-4.42,2.975c-3.235,2.927-3.611,6.824-3.292,11.157,1.812-3.125,4.812-4.223,7.635-5.624,2.17-1.076,4.433-2.1,5.929-4.151a11.769,11.769,0,0,0,1.4-10.45C308.562,316.472,305.887,317.835,303.238,319.231Zm17.213,7.669a26.048,26.048,0,0,1-4.148.936,64.735,64.735,0,0,1-6.739-.02c-5.619-.229-9.675,4.489-11.168,9.886,2.128-1.9,4.658-1.953,7.29-1.714,2.7.245,5.456.71,8.031-.517C317.371,333.73,318.948,330.324,320.451,326.9Z" transform="translate(-247.544 -295.816)" fill="#f48100"/>
    <path id="Path_3276" data-name="Path 3276" d="M288.51,308.786c-1.792,4.844-5.208,8.614-8.275,12.626-3.217,4.209-4.193,9-3.442,14.391h13.415a3.016,3.016,0,0,1-.854.272q-12.648.022-25.295.01a5.908,5.908,0,0,1-.678-.056c-.035,0-.063-.064-.094-.1l.356-.141h12.3a7.757,7.757,0,0,0-.014-1.512,14.738,14.738,0,0,1,.633-7.185c.4-1.391.655-2.544-.62-3.545l-.268-.549.017.023a9.36,9.36,0,0,1-.495-2.925,23.319,23.319,0,0,1,1.373-4.962c1.589-4.018,2.07-7.929-.64-11.669a6.077,6.077,0,0,0-1.368-1.054l.012.014c-.008-.185-.016-.37-.024-.556.009-.193.017-.386.026-.579a16.782,16.782,0,0,1,2.3,2.514c1.281,2.117,2.3,4.37,1.59,6.963-.634,2.316-1.257,4.637-1.977,6.928a7.176,7.176,0,0,0,.611,6.131c.2.043.534.182.582.116,2.771-3.86,5.546-7.716,8.245-11.626a20.314,20.314,0,0,0,1.422-2.962,23.019,23.019,0,0,0,.81-12,36.988,36.988,0,0,0-1.608-5.22l-.836-2.636.211-.177,1.242,1.374.245.571-.023-.03a2.554,2.554,0,0,0,.086.53,23.892,23.892,0,0,1,1.836,10.247c-.134,2.088-.364,4.17-.551,6.254l.017-.023Z" transform="translate(-236.429 -289.325)" fill="#ffc400"/>
    <path id="Path_3277" data-name="Path 3277" d="M303.982,294.494a36.987,36.987,0,0,1,1.608,5.22,23.019,23.019,0,0,1-.81,12c-1.981-1.019-4.161-4.578-2.89-7.586.823-1.947,1.294-4.042,1.922-6.071Z" transform="translate(-253.855 -291.682)" fill="#007c2e"/>
    <path id="Path_3278" data-name="Path 3278" d="M308.964,309.876c.187-2.084.417-4.167.551-6.254a23.893,23.893,0,0,0-1.836-10.247,2.554,2.554,0,0,1-.086-.53c.92,1.184,1.884,2.338,2.742,3.565a18.912,18.912,0,0,1,1.185,2.266c.143.514.3,1.025.425,1.544.928,3.779-.33,6.942-2.773,9.764C309.161,310,309.036,309.915,308.964,309.876Z" transform="translate(-256.628 -290.93)" fill="#007c2e"/>
    <path id="Path_3280" data-name="Path 3280" d="M307.43,292.422l-.245-.571Z" transform="translate(-256.442 -290.477)" fill="#007c2e"/>
    <path id="Path_3281" data-name="Path 3281" d="M234.928,336.007c1.019.125,1.608.167,2.185.273a5.708,5.708,0,0,1,4.65,3.651,8.164,8.164,0,0,0,6.56,5.27,8.752,8.752,0,0,1,7.3,6.852c.1.391.147.8.288,1.586-3.087-3.008-6.809-2.965-10.374-3.509-4.607-.7-8.272-3.484-8.108-8.774C237.49,339.306,237.208,337.374,234.928,336.007Z" transform="translate(-223.5 -310.607)" fill="#fffcfb"/>
    <path id="Path_3282" data-name="Path 3282" d="M266.057,339.98a53.647,53.647,0,0,0-4.574-3.292,8.646,8.646,0,0,1-4.6-7.784c-.1-3.775-.96-7.21-4.439-9.9,3.364.684,6.242,1.383,8.718,3.273a7.555,7.555,0,0,1,2.891,5.557c.239,2.285.271,4.6.6,6.867a30.868,30.868,0,0,0,1.195,4.071A10.419,10.419,0,0,1,266.057,339.98Z" transform="translate(-231.487 -302.857)" fill="#fffcfc"/>
    <path id="Path_3283" data-name="Path 3283" d="M285.88,332.95a7.176,7.176,0,0,1-.611-6.131c.72-2.291,1.343-4.612,1.977-6.928.71-2.593-.31-4.846-1.59-6.963a16.782,16.782,0,0,0-2.3-2.514l.008.008-.823-1.086c3.925,1.486,7.281,3.543,8.222,8.076.511,2.463-.42,4.582-1.57,6.633-1.539,2.742-3.251,5.409-3.107,8.745C286.082,332.84,285.949,332.9,285.88,332.95Z" transform="translate(-245.204 -298.448)" fill="#007c2e"/>
    <path id="Path_3284" data-name="Path 3284" d="M282.109,313.378a6.077,6.077,0,0,1,1.368,1.054c2.71,3.741,2.229,7.652.64,11.669a23.322,23.322,0,0,0-1.373,4.962,9.36,9.36,0,0,0,.495,2.925c-1.6-.564-2.106-2.092-2.738-3.388-1.032-2.112-.711-4.326,0-6.5a55.693,55.693,0,0,0,2.04-6.706C282.789,316.129,282.279,314.721,282.109,313.378Z" transform="translate(-243.977 -300.291)" fill="#007c2e"/>
    <path id="Path_3285" data-name="Path 3285" d="M282.425,309.336l.823,1.086C282.475,310.437,282.062,310.18,282.425,309.336Z" transform="translate(-245.093 -298.448)" fill="#ffc400"/>
    <path id="Path_3286" data-name="Path 3286" d="M286.054,351.215l.268.549Z" transform="translate(-246.808 -317.541)" fill="#007c2e"/>
    <path id="Path_3287" data-name="Path 3287" d="M283.986,312.383c.008.186.016.371.024.556C284,312.754,283.994,312.569,283.986,312.383Z" transform="translate(-245.865 -299.837)" fill="#007c2e"/>
    <path id="Path_3288" data-name="Path 3288" d="M329.44,346.454c-1.5,3.425-3.081,6.83-6.734,8.57-2.575,1.227-5.334.762-8.031.517-2.632-.239-5.162-.187-7.29,1.714,1.494-5.4,5.549-10.115,11.168-9.886a64.769,64.769,0,0,0,6.739.02A26.061,26.061,0,0,0,329.44,346.454Z" transform="translate(-256.533 -315.37)" fill="#fffdfc"/>
    <path id="Path_3289" data-name="Path 3289" d="M309.26,327.5c2.649-1.4,5.324-2.759,6.669-5.8a11.769,11.769,0,0,1-1.4,10.45c-1.5,2.051-3.758,3.075-5.929,4.151-2.823,1.4-5.823,2.5-7.635,5.624-.319-4.333.058-8.23,3.292-11.157a35.839,35.839,0,0,1,4.42-2.976Z" transform="translate(-253.566 -304.086)" fill="#fffdfc"/>
    <path id="Path_3290" data-name="Path 3290" d="M315.8,325.806l-.578.293v-8.114l.285,0c0,2.133-.017,4.267.014,6.4A7.8,7.8,0,0,0,315.8,325.806Z" transform="translate(-260.105 -302.39)" fill="#ffc500"/>
    <path id="Path_3291" data-name="Path 3291" d="M309.643,324.643l.273-.538Z" transform="translate(-257.562 -305.181)" fill="#007c2e"/>
    <path id="Path_3293" data-name="Path 3293" d="M413.283,398.385l4.71-9.453" transform="translate(-304.812 -334.736)" fill="#fef7f6"/>
    <path id="Path_3297" data-name="Path 3297" d="M515.585,403.177l-10.619-.011c.143-.087.285-.25.428-.251q4.887-.021,9.774,0C515.307,402.917,515.446,403.086,515.585,403.177Z" transform="translate(-346.61 -341.106)" fill="#e88086"/>
    <path id="Path_3298" data-name="Path 3298" d="M524.448,413.985v0Z" transform="translate(-355.492 -341.318)" fill="#e88086"/>
    <path id="Path_3299" data-name="Path 3299" d="M504.966,422.855l10.619-.01Z" transform="translate(-346.61 -350.197)" fill="#e88086"/>
  </g>
  <g id="Words" transform="translate(0 50.345)">
    <path id="Path_3266" data-name="Path 3266" d="M277.784,403.837V382.521H287.96c1.344,0,2.688-.014,4.032,0a6.211,6.211,0,0,1,1.461,12.272c-.223.058-.438.146-1.052.353l12.8,14.133a8.379,8.379,0,0,1-6.742-2.348,86.239,86.239,0,0,1-9.656-11.077,2.867,2.867,0,0,0-1.814-.871,31.2,31.2,0,0,0-3.889-.033c-1.556.034-1.858.361-1.872,1.9-.013,1.39.046,2.785-.056,4.168C281.027,403,279.8,403.99,277.784,403.837Zm3.488-11.815c.817-.046,1.59-.106,2.364-.129,2.727-.082,5.469-.016,8.175-.3a3.939,3.939,0,0,0,2.651-1.622c1.218-2.07-.43-4.106-3.248-4.154-2.918-.05-5.838-.014-8.757-.008-.4,0-.789.054-1.186.083Z" transform="translate(-172.974 -382.156)" fill="#fff"/>
    <path id="Path_3267" data-name="Path 3267" d="M447.924,403.95V382.714h3.584c3.1,0,6.208-.005,9.311,0,4.344.01,7.1,1.767,8.661,5.826a13,13,0,0,1-.459,11.138,7.51,7.51,0,0,1-6.618,4.373c-4.673.153-9.355.045-14.033.041A1.72,1.72,0,0,1,447.924,403.95Zm4.066-2.875c3.356,0,6.585.075,9.807-.032a4.554,4.554,0,0,0,3.709-2.37c1.91-3.04,1.8-6.195.478-9.4-.732-1.771-1.955-3.256-3.883-3.382-3.34-.216-6.7-.06-10.111-.06Z" transform="translate(-250.541 -382.246)" fill="#fff"/>
    <path id="Path_3268" data-name="Path 3268" d="M203.158,382.767c-.029,1.775-1.183,2.856-3.271,2.89-2.967.048-5.936-.009-8.9.028a15.26,15.26,0,0,0-2.895.286,2.59,2.59,0,0,0-2.066,2.749,2.231,2.231,0,0,0,2.182,2.416c2.861.181,5.735.183,8.6.2a5.867,5.867,0,0,1,5.86,3.617,6.018,6.018,0,0,1-5.235,8.7c-4.9.148-9.814.034-14.785.034a1.874,1.874,0,0,1,1.139-2.39,7.769,7.769,0,0,1,2.8-.659c2.965-.082,5.935-.013,8.9-.042a8.629,8.629,0,0,0,2.193-.274,2.765,2.765,0,0,0,2.069-2.789,2.593,2.593,0,0,0-2.356-2.664c-2.343-.214-4.712-.138-7.058-.329a15.7,15.7,0,0,1-4.718-.835,5.285,5.285,0,0,1-3.041-5.957c.4-2.506,2.309-4.821,4.775-4.918C192.614,382.623,197.889,382.767,203.158,382.767Z" transform="translate(-129.533 -382.248)" fill="#fff"/>
    <path id="Path_3269" data-name="Path 3269" d="M398.627,403.551c1.082-2.133,2.148-4.227,3.206-6.323,2.374-4.7,4.814-9.375,7.076-14.131.681-1.432,1.727-1.008,2.753-1.116a1.757,1.757,0,0,1,2.046,1.128c3.159,6.371,6.411,12.695,9.629,19.036.226.446.422.908.71,1.529a5.563,5.563,0,0,1-4.545-2.112,2.256,2.256,0,0,1-.537-.8c-.635-2.4-2.355-2.579-4.454-2.438-2.4.161-4.817.094-7.223.017a3.182,3.182,0,0,0-3.386,2.028A5.2,5.2,0,0,1,398.627,403.551Zm7.974-8.345h9.448l-4.737-9.453Z" transform="translate(-228.067 -381.902)" fill="#fff"/>
    <path id="Path_3270" data-name="Path 3270" d="M133.086,403.572c.148-.353.268-.692.428-1.011,3.286-6.527,6.592-13.044,9.847-19.587.4-.8.889-1.152,1.717-.983.951.194,2.119-.588,2.81.8,3.382,6.791,6.813,13.557,10.223,20.334a2.873,2.873,0,0,1,.126.522,5.2,5.2,0,0,1-4.158-1.807,2.287,2.287,0,0,1-.647-.893c-.723-2.5-2.5-2.816-4.782-2.637-2.489.194-5.006.074-7.51.032a2.681,2.681,0,0,0-2.712,1.734C137.319,402.463,135.343,403.754,133.086,403.572Zm17.275-8.261-4.65-9.521-4.827,9.521Z" transform="translate(-107.007 -381.895)" fill="#fff"/>
    <path id="Path_3271" data-name="Path 3271" d="M224.434,382.552c2.111.072,3.172.868,3.312,2.833.155,2.161.035,4.341.035,6.336,3.364,0,6.544,0,9.724,0,1.887,0,2.244-.371,2.252-2.294.005-1.252-.022-2.505.007-3.756.048-2.07,1.206-3.118,3.413-3.087v21.248c-2.136.073-3.315-.911-3.391-2.953-.075-2.026-.016-4.058-.016-6.016-3.246,0-6.337-.008-9.427,0-2.184.007-2.473.306-2.474,2.465,0,1.159.053,2.322-.016,3.478a2.991,2.991,0,0,1-3.419,3.044Z" transform="translate(-148.652 -382.173)" fill="#fff"/>
    <path id="Path_3272" data-name="Path 3272" d="M110.534,403.7c-3.672-.1-5.116-2.561-6.316-5.329-3.734,0-7.437,0-11.141,0a2.461,2.461,0,0,0-2.384,1.584,6.086,6.086,0,0,1-3.715,3.493,16.915,16.915,0,0,1-1.823.348c.306-.649.488-1.054.687-1.451,3.214-6.4,6.48-12.767,9.6-19.207.653-1.347,1.6-1.09,2.625-1.144a1.912,1.912,0,0,1,2.192,1.142c3.149,6.42,6.4,12.789,9.62,19.176C110.086,402.715,110.267,403.13,110.534,403.7Zm-7.94-8.363-4.77-9.5-4.754,9.5Z" transform="translate(-85.155 -381.913)" fill="#fff"/>
    <path id="Path_3273" data-name="Path 3273" d="M375,403.67c-3.676-.2-5.094-2.657-6.279-5.356-3.768,0-7.472,0-11.175,0a2.657,2.657,0,0,0-2.515,1.821,5.726,5.726,0,0,1-5.419,3.523c1.045-2.093,2-4.013,2.962-5.927,2.493-4.952,4.971-9.911,7.522-14.833a2.316,2.316,0,0,1,1.436-.925c1.871-.429,2.88.344,3.739,2.163,2.861,6.054,5.982,11.984,9,17.965C374.5,402.545,374.7,403.006,375,403.67Zm-17.455-8.415h9.544l-4.774-9.551C360.638,389.067,359.081,392.185,357.548,395.255Z" transform="translate(-205.722 -381.855)" fill="#fff"/>
    <path id="Path_3274" data-name="Path 3274" d="M328.37,399.886c1.837-3.662,3.608-7.2,5.389-10.735.707-1.4,1.411-2.809,2.162-4.19,1.071-1.97,2.848-2.764,5.156-3L330.139,403.62c-3.5.285-3.49.281-5.031-2.777q-4.369-8.668-8.752-17.33c-.226-.448-.425-.91-.693-1.488a5.772,5.772,0,0,1,5.287,3.31c2.306,4.523,4.579,9.063,6.869,13.593C327.962,399.212,328.135,399.48,328.37,399.886Z" transform="translate(-190.243 -381.905)" fill="#fff"/>
    <path id="Path_3275" data-name="Path 3275" d="M265.094,382.826h3.3c0,7.069,0,14.094,0,21.12-1.833.215-3.247-.692-3.269-2.425C265.045,395.324,265.094,389.125,265.094,382.826Z" transform="translate(-167.182 -382.297)" fill="#fff"/>
  </g>
  <g id="Veg" transform="translate(227.662 61.253)">
    <path id="Path_3279" data-name="Path 3279" d="M503.573,401.9h12.114V414.09H503.573Zm11.377,11.4-.019.019V402.7l.019.02c-.139-.091-.278-.26-.418-.261q-4.886-.022-9.774,0c-.143,0-.285.164-.428.251a7.817,7.817,0,0,0-.22,1.284q-.031,4.016,0,8.03a7.808,7.808,0,0,0,.22,1.284Z" transform="translate(-503.573 -401.902)" fill="#007c2e"/>
    <path id="Path_3296" data-name="Path 3296" d="M504.769,413.976a7.808,7.808,0,0,1-.22-1.284q-.031-4.015,0-8.03a7.818,7.818,0,0,1,.22-1.284l10.619.011-.019-.02v10.616l.019-.019Zm5.267-8.638a3.359,3.359,0,0,0-3.278,3.335,3.333,3.333,0,1,0,3.278-3.335Z" transform="translate(-504.011 -402.571)" fill="#fefcfa"/>
    <path id="Path_3300" data-name="Path 3300" d="M511.9,406.989a3.331,3.331,0,1,1-3.278,3.335A3.359,3.359,0,0,1,511.9,406.989Z" transform="translate(-505.873 -404.765)" fill="#007c2e"/>
  </g>
</svg>
