<svg id="Logo" xmlns="http://www.w3.org/2000/svg" width="320" height="103.46" viewBox="0 0 320 103.46">
  <g id="Sun" transform="translate(79.261)">
    <path id="Path_3264" data-name="Path 3264" d="M252.529,357.5l4.123-1.017c-3.666-3.342-9.817-5.873-15.143-2.823-4.643,2.659-9.672,2.2-14.357-.573-.641-.379-1.276-.77-1.914-1.155l-.422.336,2.46,5.486H213.965a50.387,50.387,0,0,1,3.208-19.376c5.665-15.734,16.3-27.028,31.361-34.073a58.008,58.008,0,0,1,36.254-3.677c-.891,2.877-1.56,5.85-2.727,8.611-1.8,4.267,1.289,9.316,4.1,10.761a28.818,28.818,0,0,1-2.018,4.2c-3.828,5.546-7.765,11.017-11.7,16.492-.068.094-.542-.1-.826-.164.1-.076.288-.156.285-.228-.2-4.733,2.225-8.516,4.408-12.405,1.632-2.908,2.952-5.914,2.227-9.409-1.334-6.429-6.1-9.347-11.663-11.455-.514,1.2.071,1.562,1.167,1.541l-.012-.011-.036.822.034.788-.017-.02c.242,1.9.965,3.9.619,5.693a78.983,78.983,0,0,1-2.894,9.513c-1.014,3.088-1.469,6.229-.006,9.225.9,1.839,1.609,4.006,3.885,4.805l-.025-.032.38.779c1.808,1.421,1.446,3.056.88,5.029-.946,3.3-1.636,6.7-.9,10.193a11,11,0,0,1,.02,2.144Zm-22.394-29.882c3.234,1.939,3.634,4.68,3.543,7.586-.233,7.5,4.966,11.448,11.5,12.446,5.058.772,10.337.712,14.716,4.978-.2-1.118-.265-1.694-.409-2.249a12.414,12.414,0,0,0-10.35-9.72c-4.444-.865-7.647-3.183-9.3-7.475a8.1,8.1,0,0,0-6.6-5.179C232.416,327.853,231.58,327.793,230.135,327.617Zm32.828,16.63a14.777,14.777,0,0,0-.295-1.71,43.766,43.766,0,0,1-1.695-5.775c-.465-3.221-.51-6.5-.85-9.741a10.717,10.717,0,0,0-4.1-7.883c-3.511-2.681-7.595-3.672-12.366-4.643,4.935,3.812,6.161,8.684,6.3,14.039a12.264,12.264,0,0,0,6.521,11.042A76.108,76.108,0,0,1,262.963,344.247Z" transform="translate(-213.924 -291.587)" fill="#f48100"/>
    <path id="Path_3265" data-name="Path 3265" d="M308.617,303.562c26.147,9.043,39.622,33.85,39.27,55.317H333.461l4.709-4.257-.207-.367c-2.13.259-4.254.649-6.391.749a32.294,32.294,0,0,1-10.87-1.1c-5.525-1.642-10,.4-13.663,4.6H288.008c-1.065-7.647.319-14.445,4.883-20.415,4.351-5.691,9.2-11.04,11.738-17.911l.387-.763-.024.032c.1.054.279.173.3.153,3.465-4,5.25-8.49,3.933-13.851C309.04,305.016,308.82,304.291,308.617,303.562Zm1.137,22.227a11.065,11.065,0,0,1-.4-2.018c-.044-3.026-.019-6.052-.019-9.078l-.4,0v11.51a50.731,50.731,0,0,0-6.269,4.22c-4.589,4.152-5.123,9.68-4.67,15.827,2.571-4.433,6.826-5.991,10.831-7.978,3.079-1.527,6.289-2.978,8.41-5.888a16.694,16.694,0,0,0,1.98-14.823C317.306,321.875,313.512,323.809,309.754,325.789Zm24.417,10.878a36.963,36.963,0,0,1-5.884,1.328,91.853,91.853,0,0,1-9.559-.029c-7.97-.325-13.724,6.368-15.842,14.023,3.019-2.7,6.607-2.77,10.341-2.431,3.827.347,7.74,1.006,11.393-.734C329.8,346.355,332.039,341.524,334.171,336.667Z" transform="translate(-230.752 -292.574)" fill="#f48100"/>
    <path id="Path_3276" data-name="Path 3276" d="M299.066,316.931c-2.542,6.871-7.387,12.219-11.738,17.911-4.564,5.97-5.948,12.767-4.883,20.414h19.029a4.279,4.279,0,0,1-1.211.386q-17.941.031-35.881.014a8.386,8.386,0,0,1-.962-.079c-.049-.005-.089-.091-.133-.141l.505-.2H281.24a11,11,0,0,0-.02-2.144c-.738-3.495-.048-6.9.9-10.193.567-1.974.929-3.608-.879-5.029l-.38-.779.025.032c-.262-1.387-.905-2.833-.7-4.148a33.08,33.08,0,0,1,1.947-7.039c2.254-5.7,2.936-11.247-.908-16.553a8.616,8.616,0,0,0-1.941-1.495l.017.02q-.017-.394-.034-.788c.012-.274.024-.548.036-.822a23.811,23.811,0,0,1,3.269,3.566c1.817,3,3.262,6.2,2.256,9.877-.9,3.286-1.783,6.578-2.8,9.828a10.179,10.179,0,0,0,.867,8.7c.284.061.758.259.826.164,3.93-5.475,7.867-10.946,11.7-16.492a28.813,28.813,0,0,0,2.017-4.2c2.111-5.554,2.056-11.295,1.149-17.018a52.458,52.458,0,0,0-2.281-7.4l-1.186-3.739.3-.251,1.761,1.95q.175.405.348.81l-.033-.043a3.614,3.614,0,0,0,.122.752,33.891,33.891,0,0,1,2.6,14.536c-.19,2.961-.516,5.915-.781,8.872l.024-.032Z" transform="translate(-225.188 -289.325)" fill="#ffc400"/>
    <path id="Path_3277" data-name="Path 3277" d="M305.016,294.494a52.484,52.484,0,0,1,2.281,7.4c.907,5.723.962,11.464-1.149,17.018-2.81-1.446-5.9-6.494-4.1-10.761,1.167-2.762,1.835-5.734,2.727-8.611Z" transform="translate(-233.91 -290.504)" fill="#007c2e"/>
    <path id="Path_3278" data-name="Path 3278" d="M309.538,317c.265-2.957.591-5.91.781-8.872a33.891,33.891,0,0,0-2.6-14.536,3.625,3.625,0,0,1-.122-.752c1.305,1.68,2.673,3.317,3.89,5.057a26.848,26.848,0,0,1,1.681,3.215c.2.729.423,1.454.6,2.19,1.317,5.361-.469,9.848-3.933,13.851C309.817,317.177,309.64,317.058,309.538,317Z" transform="translate(-235.298 -290.128)" fill="#007c2e"/>
    <path id="Path_3280" data-name="Path 3280" d="M307.533,292.661q-.173-.405-.348-.81Q307.36,292.256,307.533,292.661Z" transform="translate(-235.205 -289.901)" fill="#007c2e"/>
    <path id="Path_3281" data-name="Path 3281" d="M234.928,336.007c1.445.177,2.281.236,3.1.387a8.1,8.1,0,0,1,6.6,5.179c1.658,4.292,4.861,6.61,9.3,7.475a12.415,12.415,0,0,1,10.35,9.72c.144.555.208,1.131.409,2.249-4.379-4.267-9.659-4.206-14.716-4.978-6.535-1-11.734-4.942-11.5-12.446C238.562,340.687,238.162,337.947,234.928,336.007Z" transform="translate(-218.717 -302.98)" fill="#fffcfb"/>
    <path id="Path_3282" data-name="Path 3282" d="M271.753,348.758a76.09,76.09,0,0,0-6.488-4.67,12.264,12.264,0,0,1-6.521-11.042c-.137-5.355-1.362-10.227-6.3-14.039,4.771.971,8.855,1.962,12.366,4.643a10.717,10.717,0,0,1,4.1,7.883c.34,3.242.384,6.52.85,9.741a43.787,43.787,0,0,0,1.695,5.775A14.752,14.752,0,0,1,271.753,348.758Z" transform="translate(-222.715 -298.13)" fill="#fffcfc"/>
    <path id="Path_3283" data-name="Path 3283" d="M287.279,342.833a10.179,10.179,0,0,1-.867-8.7c1.021-3.249,1.9-6.542,2.8-9.828,1.006-3.678-.439-6.875-2.256-9.877a23.8,23.8,0,0,0-3.269-3.566l.012.011-1.167-1.541c5.567,2.108,10.328,5.026,11.663,11.455.725,3.494-.6,6.5-2.227,9.408-2.183,3.889-4.612,7.673-4.408,12.405C287.567,342.677,287.378,342.757,287.279,342.833Z" transform="translate(-229.58 -293.891)" fill="#007c2e"/>
    <path id="Path_3284" data-name="Path 3284" d="M283.058,313.378A8.622,8.622,0,0,1,285,314.873c3.844,5.306,3.162,10.854.908,16.553a33.081,33.081,0,0,0-1.947,7.039c-.2,1.315.44,2.761.7,4.148-2.275-.8-2.987-2.967-3.885-4.805-1.463-3-1.008-6.137.006-9.225a79,79,0,0,0,2.894-9.513C284.022,317.28,283.3,315.283,283.058,313.378Z" transform="translate(-228.966 -296.449)" fill="#007c2e"/>
    <path id="Path_3285" data-name="Path 3285" d="M282.48,309.336l1.167,1.541C282.551,310.9,281.966,310.534,282.48,309.336Z" transform="translate(-229.525 -293.891)" fill="#ffc400"/>
    <path id="Path_3286" data-name="Path 3286" d="M286.054,351.215l.381.779Q286.243,351.6,286.054,351.215Z" transform="translate(-230.383 -306.485)" fill="#007c2e"/>
    <path id="Path_3287" data-name="Path 3287" d="M283.986,312.383c.012.263.022.526.034.788C284.008,312.909,284,312.646,283.986,312.383Z" transform="translate(-229.911 -294.587)" fill="#007c2e"/>
    <path id="Path_3288" data-name="Path 3288" d="M338.67,346.454c-2.133,4.858-4.37,9.689-9.552,12.157-3.653,1.74-7.566,1.081-11.393.734-3.734-.339-7.322-.265-10.341,2.431,2.119-7.655,7.872-14.348,15.842-14.023a91.869,91.869,0,0,0,9.559.029A36.956,36.956,0,0,0,338.67,346.454Z" transform="translate(-235.251 -305.63)" fill="#fffdfc"/>
    <path id="Path_3289" data-name="Path 3289" d="M312.769,329.928c3.757-1.98,7.552-3.914,9.46-8.226a16.7,16.7,0,0,1-1.98,14.823c-2.121,2.91-5.331,4.362-8.41,5.888-4,1.987-8.26,3.546-10.831,7.978-.452-6.147.082-11.674,4.67-15.827a50.846,50.846,0,0,1,6.269-4.221Z" transform="translate(-233.766 -298.899)" fill="#fffdfc"/>
    <path id="Path_3290" data-name="Path 3290" d="M316.042,329.079l-.82.416V317.986l.4,0c0,3.026-.025,6.053.019,9.078A11.06,11.06,0,0,0,316.042,329.079Z" transform="translate(-237.039 -297.436)" fill="#ffc500"/>
    <path id="Path_3291" data-name="Path 3291" d="M309.643,324.868l.387-.763Z" transform="translate(-235.766 -298.968)" fill="#007c2e"/>
    <path id="Path_3293" data-name="Path 3293" d="M413.283,402.341l6.682-13.409" transform="translate(-259.415 -318.56)" fill="#fef7f6"/>
    <path id="Path_3297" data-name="Path 3297" d="M520.03,403.291l-15.064-.015c.2-.124.4-.354.607-.356q6.932-.03,13.864,0C519.635,402.922,519.832,403.162,520.03,403.291Z" transform="translate(-280.336 -321.749)" fill="#e88086"/>
    <path id="Path_3298" data-name="Path 3298" d="M524.448,418.428v0Z" transform="translate(-284.781 -321.855)" fill="#e88086"/>
    <path id="Path_3299" data-name="Path 3299" d="M504.966,422.86l15.064-.015Z" transform="translate(-280.336 -326.299)" fill="#e88086"/>
  </g>
  <g id="Words" transform="translate(0 64.909)">
    <path id="Path_3266" data-name="Path 3266" d="M277.784,412.761V382.523h14.435c1.906,0,3.814-.019,5.72,0a8.7,8.7,0,0,1,8.924,7.984c.534,4.33-2.316,8.247-6.851,9.425-.316.083-.621.207-1.493.5l18.159,20.048a11.886,11.886,0,0,1-9.564-3.331c-5.2-4.7-9.395-10.242-13.7-15.713a4.067,4.067,0,0,0-2.572-1.236,44.258,44.258,0,0,0-5.516-.047c-2.207.048-2.636.512-2.655,2.688-.018,1.971.066,3.951-.08,5.913C282.385,411.568,280.649,412.977,277.784,412.761ZM282.732,396c1.158-.065,2.255-.15,3.354-.184,3.868-.116,7.757-.023,11.6-.42a5.588,5.588,0,0,0,3.761-2.3c1.728-2.937-.61-5.824-4.607-5.893-4.139-.071-8.281-.02-12.422-.011-.56,0-1.12.076-1.683.117Z" transform="translate(-140.064 -382.005)" fill="#da001c"/>
    <path id="Path_3267" data-name="Path 3267" d="M447.924,412.838V382.715h5.084c4.4,0,8.806-.008,13.208,0,6.162.014,10.068,2.507,12.286,8.264a18.437,18.437,0,0,1-.651,15.8c-1.988,3.79-5.152,6.065-9.388,6.2-6.629.217-13.271.064-19.907.058A2.437,2.437,0,0,1,447.924,412.838Zm5.768-4.078c4.76,0,9.341.106,13.912-.045a6.459,6.459,0,0,0,5.261-3.361c2.709-4.313,2.557-8.787.678-13.334-1.038-2.512-2.773-4.619-5.508-4.8-4.737-.306-9.509-.085-14.343-.085Z" transform="translate(-188.058 -382.05)" fill="#da001c"/>
    <path id="Path_3268" data-name="Path 3268" d="M211.8,382.787c-.041,2.518-1.679,4.051-4.64,4.1-4.209.069-8.421-.012-12.629.039a21.646,21.646,0,0,0-4.106.406,3.675,3.675,0,0,0-2.931,3.9,3.165,3.165,0,0,0,3.1,3.427c4.059.256,8.136.259,12.206.286,3.841.026,6.719,1.529,8.312,5.131,2.579,5.829-1.1,12.146-7.426,12.337-6.955.21-13.921.048-20.973.048a2.659,2.659,0,0,1,1.616-3.39,11.024,11.024,0,0,1,3.971-.935c4.206-.116,8.419-.018,12.628-.06a12.238,12.238,0,0,0,3.11-.388,3.922,3.922,0,0,0,2.934-3.956,3.679,3.679,0,0,0-3.342-3.779c-3.323-.3-6.684-.2-10.012-.466a22.269,22.269,0,0,1-6.693-1.184c-3.374-1.406-4.883-4.847-4.314-8.451.562-3.555,3.275-6.839,6.773-6.976C196.849,382.584,204.331,382.787,211.8,382.787Z" transform="translate(-112.717 -382.052)" fill="#da001c"/>
    <path id="Path_3269" data-name="Path 3269" d="M398.627,412.588c1.534-3.026,3.046-6,4.548-8.969,3.368-6.672,6.829-13.3,10.037-20.046.966-2.031,2.45-1.429,3.9-1.583a2.493,2.493,0,0,1,2.9,1.6c4.481,9.037,9.094,18.008,13.659,27,.321.633.6,1.287,1.006,2.17a7.891,7.891,0,0,1-6.447-3,3.2,3.2,0,0,1-.762-1.136c-.9-3.4-3.341-3.658-6.318-3.458-3.4.228-6.833.134-10.246.025a4.514,4.514,0,0,0-4.8,2.877A7.371,7.371,0,0,1,398.627,412.588Zm11.312-11.837h13.4l-6.72-13.41Z" transform="translate(-176.81 -381.878)" fill="#da001c"/>
    <path id="Path_3270" data-name="Path 3270" d="M133.086,412.623c.21-.5.38-.982.607-1.434,4.661-9.259,9.351-18.5,13.968-27.785.563-1.132,1.261-1.634,2.436-1.394,1.348.275,3.005-.834,3.986,1.135,4.8,9.633,9.665,19.23,14.5,28.843a4.075,4.075,0,0,1,.179.74c-2.484.2-4.28-.991-5.9-2.564a3.244,3.244,0,0,1-.918-1.267c-1.026-3.543-3.539-3.994-6.783-3.74-3.531.276-7.1.1-10.653.046a3.8,3.8,0,0,0-3.848,2.46C139.091,411.05,136.288,412.882,133.086,412.623Zm24.5-11.718c-2.282-4.671-4.374-8.954-6.6-13.505-2.4,4.736-4.626,9.123-6.848,13.505Z" transform="translate(-96.092 -381.875)" fill="#da001c"/>
    <path id="Path_3271" data-name="Path 3271" d="M224.434,382.552c2.995.1,4.5,1.231,4.7,4.018.22,3.066.05,6.158.05,8.987,4.772,0,9.283.005,13.793,0,2.677-.005,3.183-.526,3.195-3.254.008-1.776-.032-3.553.009-5.329.068-2.937,1.71-4.422,4.842-4.379v30.14c-3.029.1-4.7-1.293-4.81-4.189-.107-2.874-.023-5.756-.023-8.534-4.6,0-8.989-.011-13.372,0-3.1.01-3.508.435-3.509,3.5,0,1.645.076,3.294-.022,4.933-.171,2.854-1.92,4.4-4.849,4.318Z" transform="translate(-124.515 -382.014)" fill="#da001c"/>
    <path id="Path_3272" data-name="Path 3272" d="M121.156,412.791c-5.208-.144-7.257-3.633-8.96-7.56-5.3,0-10.55,0-15.8,0a3.49,3.49,0,0,0-3.381,2.247,8.633,8.633,0,0,1-5.269,4.954,23.985,23.985,0,0,1-2.586.493c.435-.92.692-1.5.974-2.058,4.559-9.073,9.192-18.11,13.623-27.245.926-1.91,2.272-1.547,3.723-1.623,1.377-.073,2.359.089,3.109,1.619,4.467,9.107,9.083,18.141,13.646,27.2C120.52,411.391,120.777,411.98,121.156,412.791Zm-11.263-11.863-6.766-13.483-6.744,13.483Z" transform="translate(-85.155 -381.884)" fill="#da001c"/>
    <path id="Path_3273" data-name="Path 3273" d="M385.628,412.8c-5.214-.287-7.227-3.769-8.907-7.6-5.345,0-10.6.005-15.852,0-1.828,0-2.816,1.026-3.568,2.582a8.123,8.123,0,0,1-7.687,5c1.483-2.969,2.834-5.693,4.2-8.408,3.536-7.024,7.052-14.059,10.67-21.04a3.284,3.284,0,0,1,2.037-1.312c2.654-.608,4.085.489,5.3,3.069,4.058,8.587,8.486,17,12.767,25.483C384.914,411.2,385.192,411.858,385.628,412.8Zm-24.76-11.936h13.538l-6.773-13.548C365.252,392.086,363.043,396.509,360.869,400.864Z" transform="translate(-160.383 -381.855)" fill="#da001c"/>
    <path id="Path_3274" data-name="Path 3274" d="M333.688,407.386c2.606-5.194,5.119-10.214,7.645-15.228,1-1.991,2-3.985,3.066-5.943,1.52-2.795,4.04-3.921,7.314-4.249L336.2,412.683c-4.963.4-4.951.4-7.137-3.939q-6.2-12.3-12.415-24.582c-.321-.635-.6-1.291-.983-2.11a8.188,8.188,0,0,1,7.5,4.7c3.272,6.415,6.5,12.855,9.744,19.282C333.109,406.43,333.355,406.809,333.688,407.386Z" transform="translate(-150.727 -381.88)" fill="#da001c"/>
    <path id="Path_3275" data-name="Path 3275" d="M265.1,382.826h4.679c0,10.027,0,19.993,0,29.96-2.6.3-4.605-.982-4.637-3.44C265.03,400.555,265.1,391.761,265.1,382.826Z" transform="translate(-135.304 -382.076)" fill="#da001c"/>
  </g>
  <g id="Veg" transform="translate(302.816 80.382)">
    <path id="Path_3279" data-name="Path 3279" d="M503.573,401.9h17.184v17.289H503.573Zm16.139,16.164-.027.027V403.034l.027.028c-.2-.129-.394-.369-.593-.37q-6.931-.031-13.864,0c-.2,0-.4.232-.607.356a11.1,11.1,0,0,0-.312,1.822q-.044,5.7,0,11.391a11.081,11.081,0,0,0,.312,1.821Z" transform="translate(-503.573 -401.902)" fill="#007c2e"/>
    <path id="Path_3296" data-name="Path 3296" d="M504.867,418.416a11.07,11.07,0,0,1-.312-1.821q-.044-5.7,0-11.391a11.083,11.083,0,0,1,.312-1.822l15.064.015-.027-.028v15.059l.027-.027Zm7.471-12.253a4.764,4.764,0,0,0-4.65,4.731c-.1,2.347,2.426,4.77,4.755,4.718a4.725,4.725,0,1,0-.1-9.449Z" transform="translate(-503.792 -402.237)" fill="#fefcfa"/>
    <path id="Path_3300" data-name="Path 3300" d="M513.27,406.989a4.725,4.725,0,1,1,.1,9.449c-2.329.052-4.857-2.371-4.755-4.718A4.764,4.764,0,0,1,513.27,406.989Z" transform="translate(-504.724 -403.835)" fill="#007c2e"/>
  </g>
</svg>
